<svg viewBox="0 0 192 192" xmlns="http://www.w3.org/2000/svg"><path fill="#fff" d="M0 0h192v192H0z"/><path d="M31.432 70.362v31.297h5.208V70.362zm15.602 0-2.028 12.177h5.208l2.005-12.177zm10.379 0v31.297h5.208V70.362zM44.131 87.753l-2.306 13.905h5.208l2.306-13.905z" clip-rule="evenodd" fill="#009" fill-rule="evenodd"/><path d="M54.982 113.11c-2.061 0-3.318 1.085-3.318 3.061v2.66c0 1.962 1.256 3.06 3.292 3.06 2.061 0 3.318-1.098 3.318-3.06v-2.66c0-1.976-1.255-3.061-3.292-3.061zm16.315 0c-1.927 0-3.024.829-3.024 2.402 0 1.28.793 2.013 2.122 2.269l1.622.306v-.002c.817.159 1.33.598 1.33 1.39 0 1.036-.732 1.538-2.062 1.538-1.317 0-2.072-.574-2.072-1.697v-.107H68.2v.108c0 1.707 1.157 2.574 3.084 2.574 1.94 0 3.098-.83 3.098-2.476 0-1.28-.77-2-2.135-2.255l-1.608-.306c-.817-.16-1.33-.61-1.33-1.402 0-.964.67-1.465 1.987-1.465 1.317 0 2.026.573 2.026 1.696v.11h.997v-.11c0-1.72-1.097-2.573-3.023-2.573zm8.148 0c-2.037 0-3.293 1.085-3.293 3.061v2.66c0 1.962 1.254 3.06 3.279 3.06 1.975 0 3.208-1.024 3.208-2.83v-.037h-1.012v.037c0 1.232-.83 1.952-2.196 1.952-1.415 0-2.267-.793-2.267-2.183v-2.657c0-1.39.853-2.184 2.28-2.184 1.354 0 2.183.72 2.183 1.94v.048h1.012v-.049c0-1.805-1.231-2.818-3.194-2.818zm28.482 0c-2.036 0-3.295 1.085-3.295 3.061v2.66c0 1.962 1.259 3.06 3.283 3.06 1.976 0 3.206-1.024 3.206-2.83v-.037h-1.012v.037c0 1.232-.828 1.952-2.194 1.952-1.415 0-2.269-.793-2.269-2.183v-2.657c0-1.39.853-2.184 2.28-2.184 1.354 0 2.183.72 2.183 1.94v.048h1.012v-.049c0-1.805-1.23-2.818-3.194-2.818zm8.096 0c-2.06 0-3.315 1.085-3.315 3.061v2.66c0 1.962 1.254 3.06 3.292 3.06 2.061 0 3.316-1.098 3.316-3.06v-2.66c0-1.976-1.255-3.061-3.293-3.061zm-31.42.121v8.539h1.011v-3.842h4.342v3.842h1.011v-8.539h-1.011v3.819h-4.342v-3.819zm36.735 0v8.539h1.012v-6.55l2.66 4.989 2.67-4.99h.002v6.55h.998v-8.538h-.975l-2.696 5.05-2.694-5.05h-.977zm18.487 0-3.159 8.539h.998l.806-2.197h3.841l.807 2.197h1.084l-3.145-8.539h-1.232zm13.442 0 3.185 5.27v3.268h1v-3.268l3.171-5.27h-1.147l-2.512 4.258-2.489-4.258h-1.208zm-118.69.003-3.159 8.535h1l.806-2.196h3.842l.804 2.196h1.086l-3.147-8.536h-1.232zm9.845 0v8.535h1.011v-3.231h2.194c1.659 0 2.734-.819 2.734-2.66 0-1.83-1.075-2.644-2.734-2.644zm15.877 0v8.535h1.011v-3.231h2.477l1.524 3.231h1.17l-1.659-3.39c1-.318 1.598-1.123 1.598-2.5 0-1.83-1.072-2.645-2.731-2.645h-3.39zm32.816 0v8.535h5.512v-.878h-4.5v-2.963h3.892v-.879h-3.893v-2.937h4.5v-.879h-5.511zm37.715 0v8.535h1.011v-3.231h2.197c1.658 0 2.731-.819 2.731-2.66 0-1.83-1.073-2.644-2.731-2.644zm14.728 0v8.535h1.011v-6.694l4.403 6.694h.95v-8.536h-1.011v6.683l-4.402-6.683zm-90.575.754c1.426 0 2.28.792 2.28 2.183v2.659c0 1.39-.855 2.182-2.306 2.182-1.427 0-2.28-.792-2.28-2.182v-2.66c0-1.39.854-2.182 2.306-2.182zm61.039 0c1.426 0 2.28.792 2.28 2.183v2.659c0 1.39-.853 2.182-2.304 2.182-1.427 0-2.28-.792-2.28-2.182v-2.66c0-1.39.853-2.182 2.304-2.182zm-70.59.124h2.17c1.037 0 1.72.522 1.72 1.767 0 1.255-.671 1.78-1.72 1.78h-2.17v-3.547zm15.877 0h2.353c1.036 0 1.72.522 1.72 1.767 0 1.255-.672 1.78-1.72 1.78h-2.353v-3.547zm70.53 0h2.171c1.037 0 1.72.522 1.72 1.767 0 1.255-.67 1.78-1.72 1.78h-2.17v-3.547zm-96.703.192 1.645 4.393h-3.293zm105.25 0 1.645 4.393h-3.293zM113.16 88.693v12.963h-5.322v-31.3h5.322v13.732h13.502V70.356h5.322v31.3h-5.322V88.693m11.272-18.337h12.34c6.26 0 10.329 2.462 10.329 9.222 0 6.254-4.024 9.127-10.329 9.127h-7.02v12.95h-5.32zm5.321 13.744h6.84c3.645 0 5.053-1.466 5.053-4.521 0-3.308-1.471-4.525-5.052-4.525l-6.841-.01zm-46.652-3.89-8.538 13.604-8.543-13.604v21.446H74.2v-31.3h4.901l8.962 14.262 8.932-14.262h4.927v31.3h-5.32V80.21z" fill="#575756"/></svg>